<svg width="139" height="160" viewBox="0 0 139 160" fill="none" xmlns="http://www.w3.org/2000/svg">
<path fill-rule="evenodd" clip-rule="evenodd" d="M59.5023 1.4596C39.8053 6.7526 27.2133 26.0646 30.4313 46.0446C34.7773 73.0346 65.1023 88.0226 88.4183 74.7056C119.868 56.7446 113.938 10.5016 79.0183 1.4086C71.7483 -0.4844 66.6873 -0.471399 59.5023 1.4596ZM47.9783 95.5006C22.4893 99.3336 4.14729 117.984 0.487291 143.792C-0.647709 151.794 0.0682905 154.603 4.03829 157.726C6.73829 159.849 6.97429 159.857 69.4783 159.857C131.982 159.857 132.218 159.849 134.918 157.726C138.888 154.603 139.604 151.794 138.469 143.792C135.249 121.089 120.995 104.098 99.4783 97.3136C95.1123 95.9366 89.5443 95.5246 72.4783 95.3146C60.6533 95.1686 49.6283 95.2526 47.9783 95.5006Z" fill="white"/>
</svg>
