<svg width="159" height="160" viewBox="0 0 159 160" fill="none" xmlns="http://www.w3.org/2000/svg">
<path fill-rule="evenodd" clip-rule="evenodd" d="M21.6783 3.82063C-0.167694 10.0136 -1.11469 11.2566 0.532306 31.5916C5.52431 93.2326 51.8193 144.916 112.403 156.482C126.011 159.08 138.507 159.934 142.696 158.551C148.804 156.535 150.301 153.848 155.083 136.306C159.957 118.427 159.973 115.177 155.209 110.738C152.717 108.415 119.773 94.4696 116.779 94.4696C113.213 94.4696 108.543 98.0066 102.917 104.97C94.3683 115.549 95.3473 114.971 90.3203 112.419C73.2813 103.769 56.3843 87.4016 47.9783 71.4066C46.0333 67.7056 44.4423 64.4566 44.4423 64.1856C44.4423 63.9156 47.7053 61.1116 51.6923 57.9546C66.3093 46.3816 66.4843 45.1556 56.8453 21.8916C46.6793 -2.64437 45.8983 -3.04637 21.6783 3.82063Z" fill="white"/>
</svg>
